<svg xmlns="http://www.w3.org/2000/svg" viewBox="0 0 426.67 319.94"><defs><style>.cls-1{fill:#ef922e;}</style></defs><g id="Camada_2" data-name="Camada 2"><g id="Camada_1-2" data-name="Camada 1"><path class="cls-1" d="M213.34,64q-90.42,0-180.85,0C19.77,64,10,58.21,4,47-1.83,36-1.27,24.81,5.6,14.36A30.31,30.31,0,0,1,31.63.11C46.44-.1,61.27.05,76.09.05q158.37,0,316.74,0c15.78,0,28.13,8.6,32.38,22.44A31.92,31.92,0,0,1,394.69,64c-34.8.17-69.6.05-104.41.05Z"/><path class="cls-1" d="M212.86,192q-90.17,0-180.35,0C19.79,191.93,10,186.18,4,175c-5.84-11-5.29-22.2,1.58-32.65,6.06-9.24,15-14.09,26-14.27,13-.22,26-.07,39-.07H392.81c15.79,0,28.13,8.59,32.39,22.43a31.92,31.92,0,0,1-30.49,41.49c-33.47.17-66.94,0-100.41,0Z"/><path class="cls-1" d="M214,256q89.93,0,179.85,0c19.42,0,33.4,14.6,32.65,33.77a31.82,31.82,0,0,1-29.77,30.12c-1.33.08-2.66.06-4,.06H34c-15.75,0-28.13-8.62-32.39-22.45A31.91,31.91,0,0,1,32.12,256c38.63-.16,77.27,0,115.9,0Z"/></g></g></svg>