<svg xmlns="http://www.w3.org/2000/svg" viewBox="0 0 383.32 378.91"><defs><style>.cls-1{fill:#fff;}</style></defs><g id="Camada_2" data-name="Camada 2"><g id="Camada_1-2" data-name="Camada 1"><path class="cls-1" d="M0,338.39C2.46,326.88,10.11,318.91,18.11,311Q77.68,251.75,137,192.28c2.23-2.23,2.51-3.3.09-5.71Q74.92,124.68,13,62.56C2.56,52.15-.88,39.68,3.49,25.64,7.91,11.42,18.05,2.9,32.62.52,44.44-1.41,55,2.05,63.68,10.64L184.12,130.39a54.45,54.45,0,0,1,4.48,4.51c2,2.5,3.3,2.5,5.7.09q61.37-61.65,123-123.06C337.09-7.85,369.82-.14,378,26.33c4.21,13.55,1.4,25.92-8.73,36.08q-61.67,61.86-123.57,123.5c-2.46,2.45-2.27,3.61.07,5.93q62.85,62.26,125.56,124.68a39.69,39.69,0,0,1,11.33,20.93c4.1,20.57-12.53,40.93-33.5,41.44-13.56.34-24.42-4.25-34-13.9-40.28-40.67-80.88-81-121.28-121.56-2.28-2.3-3.34-2.37-5.68,0-41.36,41.53-83,82.8-124.18,124.48-12.46,12.61-35.29,13.9-48.67,5.65-8-5-12.32-12.37-14.6-21.22-.17-.69.07-1.55-.79-2Z"/></g></g></svg>