<svg width="87" height="87" viewBox="0 0 87 87" fill="none" xmlns="http://www.w3.org/2000/svg">
<path d="M43.5 0C19.4779 0 0 19.4779 0 43.5C0 67.5221 19.4779 87 43.5 87C67.5221 87 87 67.5221 87 43.5C87 19.4779 67.5221 0 43.5 0ZM59.56 60.0261L53.1516 59.997L43.5 48.4909L33.8581 59.9873L27.44 60.0164C27.0127 60.0164 26.6632 59.6766 26.6632 59.2396C26.6632 59.0551 26.7311 58.8804 26.8477 58.7347L39.4801 43.6845L26.8477 28.644C26.7303 28.5017 26.6652 28.3235 26.6632 28.1391C26.6632 27.7118 27.0127 27.3623 27.44 27.3623L33.8581 27.3914L43.5 38.8975L53.1419 27.4011L59.5503 27.372C59.9776 27.372 60.3271 27.7118 60.3271 28.1488C60.3271 28.3333 60.2592 28.508 60.1426 28.6537L47.5296 43.6942L60.1523 58.7444C60.2689 58.8901 60.3368 59.0648 60.3368 59.2493C60.3368 59.6766 59.9873 60.0261 59.56 60.0261Z" fill="#EF922E"/>
</svg>
